<mxfile host="Electron" agent="Mozilla/5.0 (Macintosh; Intel Mac OS X 10_15_7) AppleWebKit/537.36 (KHTML, like Gecko) draw.io/24.7.17 Chrome/128.0.6613.36 Electron/32.0.1 Safari/537.36" version="24.7.17">
  <diagram name="Page-1" id="FvLi486b6-H5uw_vKuYJ">
    <mxGraphModel dx="984" dy="747" grid="1" gridSize="10" guides="1" tooltips="1" connect="1" arrows="1" fold="1" page="1" pageScale="1" pageWidth="827" pageHeight="1169" math="0" shadow="0">
      <root>
        <mxCell id="0" />
        <mxCell id="1" parent="0" />
        <mxCell id="PXYzP7AB382Mq9rC3ooV-16" value="" style="ellipse;html=1;shape=startState;fillColor=#000000;strokeColor=#ff0000;rounded=1;" parent="1" vertex="1">
          <mxGeometry x="10" y="350" width="30" height="30" as="geometry" />
        </mxCell>
        <mxCell id="PXYzP7AB382Mq9rC3ooV-17" value="" style="edgeStyle=orthogonalEdgeStyle;html=1;verticalAlign=bottom;endArrow=open;strokeColor=#ff0000;rounded=1;" parent="1" source="PXYzP7AB382Mq9rC3ooV-16" edge="1">
          <mxGeometry relative="1" as="geometry">
            <mxPoint x="130" y="365" as="targetPoint" />
          </mxGeometry>
        </mxCell>
        <mxCell id="PXYzP7AB382Mq9rC3ooV-20" value="" style="edgeStyle=orthogonalEdgeStyle;rounded=1;orthogonalLoop=1;jettySize=auto;html=1;" parent="1" source="PXYzP7AB382Mq9rC3ooV-18" target="PXYzP7AB382Mq9rC3ooV-19" edge="1">
          <mxGeometry relative="1" as="geometry" />
        </mxCell>
        <mxCell id="PXYzP7AB382Mq9rC3ooV-22" value="" style="edgeStyle=orthogonalEdgeStyle;rounded=1;orthogonalLoop=1;jettySize=auto;html=1;" parent="1" source="PXYzP7AB382Mq9rC3ooV-18" target="PXYzP7AB382Mq9rC3ooV-21" edge="1">
          <mxGeometry relative="1" as="geometry" />
        </mxCell>
        <mxCell id="PXYzP7AB382Mq9rC3ooV-18" value="" style="html=1;points=[];perimeter=orthogonalPerimeter;fillColor=strokeColor;rounded=1;" parent="1" vertex="1">
          <mxGeometry x="130" y="250" width="5" height="230" as="geometry" />
        </mxCell>
        <mxCell id="PXYzP7AB382Mq9rC3ooV-28" value="" style="edgeStyle=orthogonalEdgeStyle;rounded=1;orthogonalLoop=1;jettySize=auto;html=1;entryX=0;entryY=0.75;entryDx=0;entryDy=0;" parent="1" target="PXYzP7AB382Mq9rC3ooV-27" edge="1">
          <mxGeometry relative="1" as="geometry">
            <mxPoint x="330" y="295" as="sourcePoint" />
            <mxPoint x="610" y="295" as="targetPoint" />
          </mxGeometry>
        </mxCell>
        <mxCell id="4o7e7O08uxFl76X4bEe0-1" value="&lt;div style=&quot;color: rgb(212, 212, 212); background-color: rgb(30, 30, 30); font-family: Menlo, Monaco, &amp;quot;Courier New&amp;quot;, monospace; font-size: 12px; line-height: 18px; white-space-collapse: preserve;&quot;&gt;pedLight&lt;span style=&quot;color: #dcdcdc;&quot;&gt;.&lt;/span&gt;activate&lt;span style=&quot;color: #dcdcdc;&quot;&gt;()&lt;/span&gt;&lt;/div&gt;" style="edgeLabel;html=1;align=center;verticalAlign=middle;resizable=0;points=[];" parent="PXYzP7AB382Mq9rC3ooV-28" vertex="1" connectable="0">
          <mxGeometry x="-0.1" y="2" relative="1" as="geometry">
            <mxPoint as="offset" />
          </mxGeometry>
        </mxCell>
        <mxCell id="PXYzP7AB382Mq9rC3ooV-19" value="pedRED" style="whiteSpace=wrap;html=1;fillColor=#a20025;strokeColor=#6F0000;fontColor=#ffffff;rounded=1;" parent="1" vertex="1">
          <mxGeometry x="210" y="250" width="120" height="60" as="geometry" />
        </mxCell>
        <mxCell id="PXYzP7AB382Mq9rC3ooV-43" value="&lt;div style=&quot;color: rgb(212, 212, 212); background-color: rgb(30, 30, 30); font-family: Menlo, Monaco, &amp;quot;Courier New&amp;quot;, monospace; font-size: 12px; line-height: 18px; white-space-collapse: preserve;&quot;&gt;&lt;span style=&quot;color: #e97366;&quot;&gt;digitalRead&lt;/span&gt;&lt;span style=&quot;color: #dcdcdc;&quot;&gt;(&lt;/span&gt;buttonPin&lt;span style=&quot;color: #dcdcdc;&quot;&gt;)&lt;/span&gt;&lt;/div&gt;" style="edgeStyle=orthogonalEdgeStyle;rounded=0;orthogonalLoop=1;jettySize=auto;html=1;exitX=0.25;exitY=1;exitDx=0;exitDy=0;entryX=0.75;entryY=1;entryDx=0;entryDy=0;" parent="1" source="PXYzP7AB382Mq9rC3ooV-21" target="PXYzP7AB382Mq9rC3ooV-23" edge="1">
          <mxGeometry relative="1" as="geometry" />
        </mxCell>
        <mxCell id="PXYzP7AB382Mq9rC3ooV-21" value="GREEN" style="whiteSpace=wrap;html=1;fillColor=#6d8764;strokeColor=#3A5431;fontColor=#ffffff;rounded=1;" parent="1" vertex="1">
          <mxGeometry x="210" y="415" width="120" height="60" as="geometry" />
        </mxCell>
        <mxCell id="PXYzP7AB382Mq9rC3ooV-37" style="edgeStyle=orthogonalEdgeStyle;rounded=0;orthogonalLoop=1;jettySize=auto;html=1;exitX=0;exitY=0.25;exitDx=0;exitDy=0;entryX=1;entryY=0.25;entryDx=0;entryDy=0;" parent="1" source="PXYzP7AB382Mq9rC3ooV-23" target="PXYzP7AB382Mq9rC3ooV-21" edge="1">
          <mxGeometry relative="1" as="geometry" />
        </mxCell>
        <mxCell id="PXYzP7AB382Mq9rC3ooV-48" value="&lt;font style=&quot;font-size: 14px;&quot;&gt;t5&lt;/font&gt;" style="edgeLabel;html=1;align=center;verticalAlign=middle;resizable=0;points=[];" parent="PXYzP7AB382Mq9rC3ooV-37" vertex="1" connectable="0">
          <mxGeometry x="0.05" relative="1" as="geometry">
            <mxPoint as="offset" />
          </mxGeometry>
        </mxCell>
        <mxCell id="PXYzP7AB382Mq9rC3ooV-40" style="edgeStyle=orthogonalEdgeStyle;rounded=0;orthogonalLoop=1;jettySize=auto;html=1;exitX=1;exitY=0.75;exitDx=0;exitDy=0;entryX=0;entryY=0.75;entryDx=0;entryDy=0;" parent="1" source="PXYzP7AB382Mq9rC3ooV-23" target="PXYzP7AB382Mq9rC3ooV-25" edge="1">
          <mxGeometry relative="1" as="geometry" />
        </mxCell>
        <mxCell id="PXYzP7AB382Mq9rC3ooV-46" value="&lt;font style=&quot;font-size: 14px;&quot;&gt;t5&lt;/font&gt;" style="edgeLabel;html=1;align=center;verticalAlign=middle;resizable=0;points=[];fontSize=13;" parent="PXYzP7AB382Mq9rC3ooV-40" vertex="1" connectable="0">
          <mxGeometry x="0.075" y="-1" relative="1" as="geometry">
            <mxPoint as="offset" />
          </mxGeometry>
        </mxCell>
        <mxCell id="PXYzP7AB382Mq9rC3ooV-23" value="YELLOW" style="whiteSpace=wrap;html=1;fillColor=#e3c800;strokeColor=#B09500;fontColor=#000000;rounded=1;" parent="1" vertex="1">
          <mxGeometry x="490" y="415" width="120" height="60" as="geometry" />
        </mxCell>
        <mxCell id="PXYzP7AB382Mq9rC3ooV-39" style="edgeStyle=orthogonalEdgeStyle;rounded=0;orthogonalLoop=1;jettySize=auto;html=1;exitX=0;exitY=0.25;exitDx=0;exitDy=0;entryX=1;entryY=0.25;entryDx=0;entryDy=0;" parent="1" source="PXYzP7AB382Mq9rC3ooV-25" target="PXYzP7AB382Mq9rC3ooV-23" edge="1">
          <mxGeometry relative="1" as="geometry" />
        </mxCell>
        <mxCell id="PXYzP7AB382Mq9rC3ooV-47" value="&lt;font style=&quot;font-size: 14px;&quot;&gt;t20&lt;/font&gt;" style="edgeLabel;html=1;align=center;verticalAlign=middle;resizable=0;points=[];" parent="PXYzP7AB382Mq9rC3ooV-39" vertex="1" connectable="0">
          <mxGeometry x="-0.075" y="-1" relative="1" as="geometry">
            <mxPoint as="offset" />
          </mxGeometry>
        </mxCell>
        <mxCell id="PXYzP7AB382Mq9rC3ooV-25" value="RED" style="whiteSpace=wrap;html=1;fillColor=#a20025;strokeColor=#6F0000;fontColor=#ffffff;rounded=1;" parent="1" vertex="1">
          <mxGeometry x="690" y="415" width="120" height="60" as="geometry" />
        </mxCell>
        <mxCell id="PXYzP7AB382Mq9rC3ooV-27" value="pedGREEN" style="whiteSpace=wrap;html=1;fillColor=#6d8764;strokeColor=#3A5431;fontColor=#ffffff;rounded=1;" parent="1" vertex="1">
          <mxGeometry x="690" y="250" width="120" height="60" as="geometry" />
        </mxCell>
        <mxCell id="PXYzP7AB382Mq9rC3ooV-29" value="" style="endArrow=block;endFill=1;html=1;edgeStyle=orthogonalEdgeStyle;align=left;verticalAlign=top;rounded=1;exitX=0;exitY=0.25;exitDx=0;exitDy=0;" parent="1" source="PXYzP7AB382Mq9rC3ooV-27" edge="1">
          <mxGeometry x="-1" relative="1" as="geometry">
            <mxPoint x="490" y="265" as="sourcePoint" />
            <mxPoint x="330" y="265" as="targetPoint" />
          </mxGeometry>
        </mxCell>
        <mxCell id="4o7e7O08uxFl76X4bEe0-2" value="&lt;div style=&quot;color: rgb(212, 212, 212); background-color: rgb(30, 30, 30); font-family: Menlo, Monaco, &amp;quot;Courier New&amp;quot;, monospace; font-size: 12px; line-height: 18px; white-space-collapse: preserve;&quot;&gt;pedLight&lt;span style=&quot;color: #dcdcdc;&quot;&gt;.&lt;/span&gt;deactivate&lt;span style=&quot;color: #dcdcdc;&quot;&gt;()&lt;/span&gt;&lt;/div&gt;" style="edgeLabel;html=1;align=center;verticalAlign=middle;resizable=0;points=[];" parent="PXYzP7AB382Mq9rC3ooV-29" vertex="1" connectable="0">
          <mxGeometry x="0.1052" relative="1" as="geometry">
            <mxPoint as="offset" />
          </mxGeometry>
        </mxCell>
        <mxCell id="4o7e7O08uxFl76X4bEe0-3" value="" style="html=1;verticalAlign=bottom;labelBackgroundColor=none;endArrow=block;endFill=1;dashed=1;rounded=0;exitX=0.5;exitY=0;exitDx=0;exitDy=0;entryX=0.75;entryY=1;entryDx=0;entryDy=0;" parent="1" source="PXYzP7AB382Mq9rC3ooV-21" target="PXYzP7AB382Mq9rC3ooV-27" edge="1">
          <mxGeometry width="160" relative="1" as="geometry">
            <mxPoint x="270" y="360" as="sourcePoint" />
            <mxPoint x="770" y="360" as="targetPoint" />
            <Array as="points">
              <mxPoint x="270" y="360" />
              <mxPoint x="780" y="360" />
            </Array>
          </mxGeometry>
        </mxCell>
        <mxCell id="4o7e7O08uxFl76X4bEe0-4" value="" style="html=1;verticalAlign=bottom;labelBackgroundColor=none;endArrow=block;endFill=1;dashed=1;rounded=0;exitX=0.5;exitY=0;exitDx=0;exitDy=0;entryX=0.25;entryY=1;entryDx=0;entryDy=0;" parent="1" source="PXYzP7AB382Mq9rC3ooV-25" target="PXYzP7AB382Mq9rC3ooV-19" edge="1">
          <mxGeometry width="160" relative="1" as="geometry">
            <mxPoint x="760" y="370" as="sourcePoint" />
            <mxPoint x="250" y="350" as="targetPoint" />
            <Array as="points">
              <mxPoint x="750" y="370" />
              <mxPoint x="240" y="370" />
            </Array>
          </mxGeometry>
        </mxCell>
      </root>
    </mxGraphModel>
  </diagram>
</mxfile>
